<svg xmlns="http://www.w3.org/2000/svg" viewBox="0 0 321.33 80.06">
  <g>
    <path fill="#ffffff" d="M59.21,21.33c2.22,1,3.34,2.16,3.34,3.4a6.61,6.61,0,0,1-.85,2.55L46.1,57a4.57,4.57,0,0,1-1.89,1.88,5.26,5.26,0,0,1-2.63.72H41a5.4,5.4,0,0,1-2.69-.72A4.69,4.69,0,0,1,36.44,57L20.85,27.28A6.44,6.44,0,0,1,20,24.73q0-1.86,3.33-3.4a7.4,7.4,0,0,1,2.86-.9,4.06,4.06,0,0,1,1.49.21,2.53,2.53,0,0,1,1,.75,10.35,10.35,0,0,1,.94,1.4q.42.78,2.17,4.41c1.17,2.43,2.42,5,3.76,7.73l3.79,7.73q1.77,3.65,2,4.06L52.6,23.46c.3-.68.57-1.21.79-1.6a3,3,0,0,1,2.49-1.43A7.79,7.79,0,0,1,59.21,21.33Z"/>
    <path fill="#ffffff" d="M82.47,20A20.72,20.72,0,0,1,97,25.69a18.43,18.43,0,0,1,6.16,14.1A20.16,20.16,0,0,1,82.81,60.06,20.18,20.18,0,0,1,68.2,54.21a18.72,18.72,0,0,1-6-13.91A20.25,20.25,0,0,1,63.88,32a19.06,19.06,0,0,1,4.52-6.46,21.31,21.31,0,0,1,6.5-4.09A20,20,0,0,1,82.47,20ZM72.18,40a9.92,9.92,0,0,0,3.25,7.68,10.5,10.5,0,0,0,14.49.08,9.81,9.81,0,0,0,3.23-7.71,9.94,9.94,0,0,0-3.25-7.75,10.6,10.6,0,0,0-7.26-2.92,10.47,10.47,0,0,0-7.24,2.94A10,10,0,0,0,72.18,40Z"/>
    <path fill="#ffffff" d="M112.87,20.56l10.46.05a21,21,0,0,1,14.4,5.56A17.58,17.58,0,0,1,144,39.82a18.52,18.52,0,0,1-6.08,13.89,20.54,20.54,0,0,1-14.71,5.79H112.82c-2.3,0-3.73-.44-4.3-1.33a6.72,6.72,0,0,1-.68-3.4V25.24a13.61,13.61,0,0,1,.09-1.86,4,4,0,0,1,.54-1.38C109,21,110.46,20.56,112.87,20.56Zm17.8,26.69A9.06,9.06,0,0,0,134,40.11a9.35,9.35,0,0,0-3.19-7.2A10.8,10.8,0,0,0,123.27,30h-5.43V50.1h5.49A10.89,10.89,0,0,0,130.67,47.25Z"/>
    <path fill="#ffffff" d="M168.93,20a20.72,20.72,0,0,1,14.52,5.69,18.4,18.4,0,0,1,6.16,14.1,20.16,20.16,0,0,1-20.34,20.27,20.19,20.19,0,0,1-14.61-5.85,18.71,18.71,0,0,1-6-13.91A20.24,20.24,0,0,1,150.34,32a19.2,19.2,0,0,1,4.52-6.46,21.31,21.31,0,0,1,6.5-4.09A20,20,0,0,1,168.93,20ZM158.65,40a9.89,9.89,0,0,0,3.25,7.68,10.5,10.5,0,0,0,14.49.08,9.81,9.81,0,0,0,3.22-7.71,9.91,9.91,0,0,0-3.25-7.75,10.6,10.6,0,0,0-7.26-2.92,10.43,10.43,0,0,0-7.23,2.94A9.93,9.93,0,0,0,158.65,40Z"/>
    <path fill="#ffffff" d="M243.24,21q3.8,1.27,3.79,3.4a9.84,9.84,0,0,1-.68,2.6L235.5,56.44a4.83,4.83,0,0,1-.39.91,5.28,5.28,0,0,1-1.5,1.4A5.18,5.18,0,0,1,226.24,57L219.63,38.7q-6.27,17.43-6.39,17.74a3.86,3.86,0,0,1-.51.91,6.08,6.08,0,0,1-.9,1.06,4.4,4.4,0,0,1-3.11,1.22,5,5,0,0,1-3-.8,4.55,4.55,0,0,1-1.56-1.59l-.39-.8L192.9,27a8.89,8.89,0,0,1-.62-2.6c0-1.42,1.26-2.53,3.79-3.35a9.82,9.82,0,0,1,3-.53,2.52,2.52,0,0,1,2,.85,8.15,8.15,0,0,1,1.27,2.6l6.21,17.75,6.16-17.48a5,5,0,0,1,2.88-3.08,6.26,6.26,0,0,1,2.35-.37,4.58,4.58,0,0,1,2.68.87,4.19,4.19,0,0,1,1.58,1.73l6.5,18.43,6.22-17.85c.3-.81.54-1.41.73-1.8a3.23,3.23,0,0,1,1-1.14,3.07,3.07,0,0,1,1.89-.56A8.32,8.32,0,0,1,243.24,21Z"/>
    <path fill="#ffffff" d="M296.41,50.39a7.61,7.61,0,0,1,3.2.5A2.7,2.7,0,0,1,301,52.35a6.83,6.83,0,0,1,.37,2.45,8.18,8.18,0,0,1-.28,2.39,4.22,4.22,0,0,1-.68,1.38,2.25,2.25,0,0,1-1.19.69,9.46,9.46,0,0,1-2.88.32H272.8a5.13,5.13,0,0,1-2.49-.64,4.42,4.42,0,0,1-2.49-4.2,3.49,3.49,0,0,1,.68-2.23L286,29.73H273a18.84,18.84,0,0,1-2-.08,6.4,6.4,0,0,1-1.56-.46c-1.09-.49-1.64-1.82-1.64-4s.51-3.65,1.53-4.14a4.44,4.44,0,0,1,1.5-.51,18.84,18.84,0,0,1,2-.08h22.72a5.12,5.12,0,0,1,2.48.64,4.66,4.66,0,0,1,1.84,1.7,4.73,4.73,0,0,1,.65,2.5,3.58,3.58,0,0,1-.68,2.28L282.34,50.39Z"/>
    <path fill="#ffffff" d="M262.43,34.87V55.11a17,17,0,0,1-.08,1.9,4.41,4.41,0,0,1-.56,1.47c-.54,1-1.89,1.55-4,1.55s-3.58-.34-4.28-1-1-2-1-3.85V34.92a14.89,14.89,0,0,1,.08-1.87,4,4,0,0,1,.51-1.44c.53-1.07,1.88-1.61,4-1.61s3.65.38,4.47,1.13C262.12,31.73,262.43,33,262.43,34.87Z"/>
    <path fill="#ffffff" d="M321.33,4.87V75.14a16.89,16.89,0,0,1-.08,1.89,4.13,4.13,0,0,1-.56,1.47c-.54,1-1.88,1.56-4,1.56H5c-2,0-3.3-.36-4-1s-1-2-1-3.85V75c0-.23,0-.44,0-.63H0V4.92A17.12,17.12,0,0,1,.08,3.05,4,4,0,0,1,.59,1.61C1.12.54,2.47,0,4.63,0h252.8c2,0,3.32.41,4.09,1.12.6.6.91,1.85.91,3.74V15.08a17,17,0,0,1-.08,1.9,4.41,4.41,0,0,1-.56,1.47c-.54,1-1.89,1.55-4,1.55s-3.58-.33-4.28-1-1-2-1-3.85V10H10V70.06H311.33V10h-33.9c-2,0-3.3-.35-4-1s-1-2-1-3.85V4.92a14.89,14.89,0,0,1,.08-1.87A4,4,0,0,1,273,1.61c.53-1.07,1.88-1.61,4-1.61h39.28c1.95,0,3.32.41,4.09,1.12C321,1.73,321.33,3,321.33,4.87Z"/>
  </g>
</svg>
